<svg width="235" height="14" viewBox="0 0 235 14" fill="none" xmlns="http://www.w3.org/2000/svg">
<path d="M2.15625 1.75V12.4688H22.0625V1.75H2.15625ZM23.5938 14H0.625V0.21875H23.5938V14ZM25 0.21875H47.9688V7.875H26.5312V14H25V6.34375H46.4375V1.75H25V0.21875ZM49.375 0.21875V14H72.3438V12.4688H50.9062V0.21875H49.375ZM112.719 14V0.21875H111.188V6.34375H91.2812V0.21875H89.75V14H91.2812V7.875H111.188V14H112.719ZM137.094 14H114.125V0.21875H137.094V1.75H115.656V6.34375H137.094V7.875H115.656V12.4688H137.094V14ZM138.5 0.21875V14H161.469V12.4688H140.031V0.21875H138.5ZM162.875 0.21875H185.844V7.875H164.406V14H162.875V6.34375H184.312V1.75H162.875V0.21875ZM210.219 14H187.25V0.21875H210.219V1.75H188.781V6.34375H210.219V7.875H188.781V12.4688H210.219V14ZM211.625 0.21875H234.594V7.875H213.156L234.594 12.4688V14L213.156 9.40625V14H211.625V6.34375H233.062V1.75H211.625V0.21875Z" fill="url(#paint0_linear_508_33)"/>
<defs>
<linearGradient id="paint0_linear_508_33" x1="118" y1="-14" x2="118" y2="18" gradientUnits="userSpaceOnUse">
<stop stop-color="#1142EB"/>
<stop offset="1" stop-color="#08D2E4"/>
</linearGradient>
</defs>
</svg>
